PathFileType	4	(X/Y/Z)	pose_F01_0-97.trc
DataRate	CameraRate	NumFrames	NumMarkers	Units	OrigDataRate	OrigDataStartFrame	OrigNumFrames
30	30	7	21	m	30	12	97
Frame#	Time	CHip			RHip			RKnee			RAnkle			RBigToe			RSmallToe			RHeel			LHip			LKnee			LAnkle			LBigToe			LSmallToe			LHeel			Neck			Nose			RShoulder			RElbow			RWrist			LShoulder			LElbow			LWrist			
		X1	Y1	Z1	X2	Y2	Z2	X3	Y3	Z3	X4	Y4	Z4	X5	Y5	Z5	X6	Y6	Z6	X7	Y7	Z7	X8	Y8	Z8	X9	Y9	Z9	X10	Y10	Z10	X11	Y11	Z11	X12	Y12	Z12	X13	Y13	Z13	X14	Y14	Z14	X15	Y15	Z15	X16	Y16	Z16	X17	Y17	Z17	X18	Y18	Z18	X19	Y19	Z19	X20	Y20	Z20	X21	Y21	Z21	
12	0.4	-0.24888334718077715	1.8781605799714103	-0.49727894207469825	-0.26662111619284395	1.8746794669783526	-0.4332504919610887	-0.2674966461357807	1.7339614943683441	-0.39239457920305415													-0.2318999512326265	1.8811745603677126	-0.5677671760897838	-0.22472497429301752	1.7315733912033116	-0.542553158033681	-0.21674603964195593	1.588346701842508	-0.5368150140781377	-0.2269006172294039	1.5586353225613467	-0.6146345174082731	-0.21537938731850334	1.567830045146423	-0.6278170799252827	-0.22035653091963728	1.58028673518607	-0.506599393499101	-0.2452844344872297	2.050414203318377	-0.4996153581828527	-0.25313048310722347	2.117218783388847	-0.5577099998121436	-0.2687599510999293	2.047225619528966	-0.40879716164847824	-0.2711049087210866	1.9577487030482819	-0.3769169000051615	-0.28443278818050044	1.88072555498315	-0.3594756285895892	-0.2209455845237462	2.0526068797815458	-0.5881752633752635	-1.4767862197599786	1.8737547133608268	0.7322960504004827	-0.2077237118053158	1.895926354035838	-0.6170609645136568
13	0.43333333333333335	-0.24910749778816654	1.8785712883025325	-0.49740810545858916	-0.26473359025711424	1.8752309573629609	-0.4353697862167393	-0.2674966461357807	1.7339614943683441	-0.39239457920305415													-0.23196251698930978	1.8828910599066584	-0.5679665965868871	-0.22494658564916994	1.7331999842135268	-0.5425165003780331	-0.21843073200803656	1.5865806901128547	-0.5348581330911106	-0.22255580446174344	1.558360247293609	-0.6189923183818795	-0.21317181735051113	1.5677022442630117	-0.6300324416227028	-0.22035653091963728	1.58028673518607	-0.506599393499101	-0.24430123725918643	2.0502841736447315	-0.49662535247320855	-0.25111529769680524	2.118333053857065	-0.5595749603961229	-0.2659095525528117	2.0471634037826463	-0.4076853395818094	-0.27109453978008563	1.9561734004244933	-0.37646438177896097	-0.2816727076494798	1.8791063653781803	-0.35823420721910415	-0.21888153171905858	2.053669861618043	-0.5901040138058581	-1.4767862197599786	1.8737547133608268	0.7322960504004827	-0.2077237118053158	1.895926354035838	-0.6170609645136568
14	0.4666666666666667	-0.24691943782928014	1.8785566251037418	-0.49933529523909426	-0.26452989327255794	1.876341405545059	-0.4355088689104727	-0.2674966461357807	1.7339614943683441	-0.39239457920305415													-0.23095188782443007	1.8828643567094234	-0.5647273255160404	-0.22460999607478907	1.7335735051164545	-0.5428852520019826	-0.21849752201779862	1.5870623051510753	-0.5348144684997979	-0.22486699046086153	1.5592219976034798	-0.6167406777565791	-0.21345009419574348	1.56873793967656	-0.6299399908608492	-0.22035653091963728	1.58028673518607	-0.506599393499101	-0.24429843067610785	2.050269758567492	-0.49661023824324124	-0.2511638335299362	2.117336679451286	-0.5597367039740456	-0.26773515834044415	2.0470842004916845	-0.4056709304711074	-0.2700898335518358	1.955926278994786	-0.373359141913228	-0.2867090027129264	1.8807477352561626	-0.36618906350276614	-0.21894354022008575	2.052493163934128	-0.5902059074581757	-1.4767862197599786	1.8737547133608268	0.7322960504004827	-0.2077237118053158	1.895926354035838	-0.6170609645136568
15	0.5	-0.2511563121795808	1.8756012658418184	-0.49463476648552535	-0.2686884853395777	1.8741443390393542	-0.43074178807111374	-0.2674966461357807	1.7339614943683441	-0.39239457920305415													-0.23238893778786063	1.8786742204693458	-0.5587200829086701	-0.22503248951271654	1.733985369138402	-0.5424540765111215	-0.2165522236223817	1.5875074047020001	-0.5371088670441687	-0.2268978821007036	1.5582423206066338	-0.6149478548883878	-0.21559983663699678	1.568903011595018	-0.6278648838809152	-0.22035653091963728	1.58028673518607	-0.506599393499101	-0.24432692941647827	2.050265572258199	-0.49652600646586187	-0.2510553965536707	2.1184215951960104	-0.559579321802272	-0.26774561068628894	2.0470842542489214	-0.4055920430546689	-0.27006775978921405	1.9558099290769757	-0.37338849438023697	-0.2865164534079105	1.8752747058149797	-0.3652393801463491	-0.21894795065967237	2.0525099701848437	-0.5901630722154027	-1.4767862197599786	1.8737547133608268	0.7322960504004827	-0.2077237118053158	1.895926354035838	-0.6170609645136568
16	0.5333333333333333	-0.2490974611003847	1.8809330627171563	-0.4976965696771872	-0.2667044110253218	1.8788257991455293	-0.43386658466959876	-0.2674966461357807	1.7339614943683441	-0.39239457920305415													-0.23124637799916234	1.8849276237824808	-0.5651308590825136	-0.22506707169374798	1.7369655936459134	-0.542789478166245	-0.21670206812394327	1.5883165412466937	-0.5366305092793835	-0.22484274209951963	1.5591763582971747	-0.6167520483660809	-0.21260947629602994	1.569752929202051	-0.626469049409323	-0.22035653091963728	1.58028673518607	-0.506599393499101	-0.24431436967650325	2.050293687025645	-0.49660024924311297	-0.2510292377801486	2.118398587554521	-0.5596033224225797	-0.265854791635867	2.0495339274621114	-0.4081448537275084	-0.27110064896058245	1.9577041889558766	-0.3768622445065101	-0.28578410605763765	1.8801185633711726	-0.36300082889358015	-0.21898244194066777	2.052521421591294	-0.5902014645739511	-1.4767862197599786	1.8737547133608268	0.7322960504004827	-0.2077237118053158	1.895926354035838	-0.6170609645136568
17	0.5666666666666667	-0.24923975655398162	1.879748541989247	-0.4975510418490696	-0.26673959119278057	1.8764517735027393	-0.4334478704919354	-0.2674966461357807	1.7339614943683441	-0.39239457920305415													-0.2312881899950008	1.882757909017011	-0.5648024419500519	-0.22519481872227445	1.7321385580123512	-0.5421540446078915	-0.21868118342061021	1.5880856716834204	-0.5346061257849285	-0.22465228046278035	1.5579063523385532	-0.6170820811068105	-0.2132871028133188	1.5680540116981412	-0.6300422138496239	-0.22035653091963728	1.58028673518607	-0.506599393499101	-0.24241313760523595	2.0503504616722448	-0.49866366227132986	-0.25103628496329705	2.1183822119202134	-0.5596043432033508	-0.26582437028449796	2.049543708425465	-0.408129997895751	-0.26837093635002973	1.9588695593684984	-0.3763426439027304	-0.2830722295874385	1.8790829063083292	-0.36197224302433945	-0.21896550980431745	2.052528996424746	-0.5901808832507955	-1.4767862197599786	1.8737547133608268	0.7322960504004827	-0.2077237118053158	1.895926354035838	-0.6170609645136568
18	0.6	-0.24895196870427802	1.8796186322692494	-0.49741504679114057	-0.26657604774036725	1.8775177689518223	-0.4335470107989487	-0.2674966461357807	1.7339614943683441	-0.39239457920305415													-0.23013208452066355	1.883833896409348	-0.5617606847905002	-0.22528654341946344	1.7332715499530573	-0.5421674073440227	-0.21648496463885067	1.5869321208037919	-0.5369593648386909	-0.2216515469667871	1.5586759208867138	-0.6157136826124124	-0.2124631882322594	1.5688783173183591	-0.626494224397273	-0.22035653091963728	1.58028673518607	-0.506599393499101	-0.24238214168838917	2.0503561830317256	-0.4986637371797116	-0.2510099698212639	2.118408855252889	-0.5596219170031839	-0.26582543328894037	2.0495245615777353	-0.40817050998166965	-0.2710350553639797	1.9558434994642138	-0.3765374468122565	-0.28503779737470786	1.8738223006337877	-0.3674198247602294	-0.21797777114869318	2.0534590074887964	-0.5871842461361046	-1.4767862197599786	1.8737547133608268	0.7322960504004827	-0.2077237118053158	1.895926354035838	-0.6170609645136568
